# xmcd CD database file
#
# Track frame offsets:
#	150
#	15502
#	38690
#	60162
#	79907
#	95942
#	110617
#	133942
#	158470
#	174357
#	189395
#	205530
#	222640
#
# Disc length: 3261 seconds
#
# Revision: 8
# Processed by: cddbd v1.5.2PL0 Copyright (c) Steve Scherf et al.
# Submitted via: CDex 1.70beta3
#
DISCID=a80cbb0d
DTITLE=アバ - ヴーレ・ヴー
DYEAR=1979
DGENRE=Pop
TTITLE0=アズ・グッド・アズ・ニュー
TTITLE1=ヴーレ・ヴー
TTITLE2=アイ・ハヴ・ア・ドリーム
TTITLE3=エンジェルアイズ
TTITLE4=ザ・キング・ハズ・ロスト・ヒズ・クラウン
TTITLE5=ダズ・ユア・マザー・ノウ
TTITLE6=イフ・イット・ワズント・フォー・ザ・ナイツ
TTITLE7=チキチータ
TTITLE8=ラヴァーズ
TTITLE9=キッシィズ・オブ・ファイア
TTITLE10=サマー・ナイト・シティ
TTITLE11=ラヴライト
TTITLE12=ギミー！ギミー！ギミー！
EXTD=YEAR: 1979
EXTT0=
EXTT1=
EXTT2=
EXTT3=
EXTT4=
EXTT5=
EXTT6=
EXTT7=
EXTT8=
EXTT9=
EXTT10=
EXTT11=
EXTT12=
PLAYORDER=
